<?xml version="1.0" standalone="no"?><!DOCTYPE svg PUBLIC "-//W3C//DTD SVG 1.1//EN" "http://www.w3.org/Graphics/SVG/1.1/DTD/svg11.dtd"><svg class="icon" width="200px" height="200.00px" viewBox="0 0 1024 1024" version="1.1" xmlns="http://www.w3.org/2000/svg"><path fill="#333333" d="M620.851 836.267h143.53a20.719 20.719 0 0 0 20.686-20.685V208.418a20.719 20.719 0 0 0-20.685-20.685H620.646A128.341 128.341 0 0 1 507.46 256c-47.786 0-91.272-26.795-113.22-68.267H259.584a20.685 20.685 0 0 0-20.65 20.685v607.164c0 11.435 9.25 20.685 20.684 20.685h134.417a128.341 128.341 0 0 1 113.391-68.608 128.341 128.341 0 0 1 113.425 68.608z m143.53 51.2h-178.38l-6.042-17.101a77.039 77.039 0 0 0-72.499-51.507c-32.597 0-61.747 20.719-72.567 51.507l-6.008 17.1H259.584a71.953 71.953 0 0 1-71.85-71.884V208.418c0-39.629 32.221-71.885 71.884-71.885h169.336l6.075 17.033A77.073 77.073 0 0 0 507.46 204.8c32.427 0 61.509-20.617 72.431-51.234l6.042-17.033h178.449c39.629 0 71.885 32.256 71.885 71.885v607.164a71.987 71.987 0 0 1-71.885 71.885z m-397.448-358.4h-51.2a25.6 25.6 0 1 1 0-51.2h51.2a25.6 25.6 0 1 1 0 51.2z m193.4 0h-96.7a25.6 25.6 0 1 1 0-51.2h96.7a25.6 25.6 0 1 1 0 51.2z m147.934 0h-51.2a25.6 25.6 0 1 1 0-51.2h51.2a25.6 25.6 0 1 1 0 51.2z" /></svg>