<?xml version="1.0" standalone="no"?><!DOCTYPE svg PUBLIC "-//W3C//DTD SVG 1.1//EN" "http://www.w3.org/Graphics/SVG/1.1/DTD/svg11.dtd"><svg t="1610946613683" class="icon" viewBox="0 0 1024 1024" version="1.1" xmlns="http://www.w3.org/2000/svg" p-id="3282" xmlns:xlink="http://www.w3.org/1999/xlink" width="200" height="200"><defs><style type="text/css"></style></defs><path d="M896 167.058l-449.08 449.08c-12.496 12.496-32.758 12.496-45.255 0-12.496-12.497-12.496-32.758 0-45.255L844.548 128H736c-17.673 0-32-14.327-32-32 0-17.673 14.327-32 32-32h192c17.673 0 32 14.327 32 32v192c0 17.673-14.327 32-32 32-17.673 0-32-14.327-32-32V167.058zM896 512v-19c0-17.673 14.327-32 32-32 17.673 0 32 14.327 32 32v435c0 17.673-14.327 32-32 32H96c-17.673 0-32-14.327-32-32V96c0-17.673 14.327-32 32-32h430c17.673 0 32 14.327 32 32 0 17.673-14.327 32-32 32H136a8 8 0 0 0-8 8v752a8 8 0 0 0 8 8h752a8 8 0 0 0 8-8V512z" p-id="3283"></path></svg>